<svg xmlns="http://www.w3.org/2000/svg" xmlns:svg="http://www.w3.org/2000/svg" id="svg2" width="27.888" height="13.346" version="1.1"><metadata id="metadata40"/><path id="path4" d="m 14.400122,10.8521 h -14.3 L 0.1,2.0521 h 14.3" style="fill:#fff;stroke:#000;stroke-width:.2;stroke-linejoin:round;stroke-miterlimit:4;stroke-dasharray:none"/><path id="path6" d="m 19.340122,5.87543 v 6 l -0.9,0.5 -1.1,0.5 -0.6,0.2 -0.572656,0.123438 c -0.276378,0.05476 -0.476337,0.06983 -0.778125,0.0039 -0.238562,-0.03971 -0.382759,-0.124565 -0.5,-0.2 -0.114704,-0.06895 -0.147057,-0.112633 -0.349219,-0.327348 -0.133948,-0.271542 -0.152719,-0.339323 -0.2,-0.5 l -0.1,-0.3 -0.1,-0.6 v -5.4" style="fill:#fff;stroke:#000;stroke-width:.2;stroke-linejoin:round;stroke-miterlimit:4;stroke-dasharray:none"/><path id="path8" d="m 14.452122,3.2509 h -4 V 1.3 h 4" style="fill:#d10101;stroke-width:.1"/><path id="path10" d="m 14.452122,7.3061 h -4 v -2 l 4,4e-5" style="fill:#d10101;stroke-width:.1"/><path id="path12" d="m 14.452122,11.3 h -4 v -2 h 4" style="fill:#d10101;stroke-width:.1"/><path id="path14" d="m 21.209153,1.0882813 0.9,0.3078125 L 22.952122,1.9 l 0.8,0.6 0.6,0.7 0.5,0.8 0.3,0.8 0.2,0.8 v 0.8 l -0.1,0.8 -0.1,0.7 L 25.013059,8.4390625 24.740403,9.053125 24.352122,9.6 l -0.4,0.5 -0.507813,0.472656 -0.492187,0.327344 -0.6,0.3 -0.566291,0.26133 L 21.252122,11.6" style="fill:#fff;fill-opacity:1;stroke:#000;stroke-width:.2;stroke-linejoin:round;stroke-miterlimit:4;stroke-dasharray:none"/><path id="path16" d="m 19.352122,5.9 h -4.9 V 1.5 h 4.9" style="stroke-width:.1"/><path id="path18" d="m 21.252122,0.9 v 10.9 l -0.1,0.4 -0.3,0.3 -0.3,0.1 h -0.5 l -0.3,-0.1 -0.3,-0.3 -0.1,-0.2 V 0.9 0.6 l 0.1,-0.2 0.3,-0.3 0.3,-0.1 h 0.5 l 0.3,0.1 0.3,0.3 0.1,0.4" style="stroke-width:.1"/><path id="path20" d="m 10.452122,10.8 h -10.3 V 2 h 10.3" style="color:#000;fill:none;stroke-width:.1"/><path id="path22" d="m 21.252122,1.1 0.9,0.3 0.8,0.5 0.8,0.6 0.6,0.7 0.5,0.8 0.3,0.8 0.2,0.8 v 0.8 l -0.1,0.8 -0.1,0.7 -0.1,0.5 -0.3,0.7 -0.4,0.5 -0.4,0.5 -0.5,0.5 -0.5,0.3 -0.6,0.3 -0.5,0.3 -0.6,0.1" style="color:#000;fill:none;stroke-width:.1"/><path id="path26" d="m 19.352122,11.9 -0.9,0.5 -1.1,0.5 -0.6,0.2 -0.6,0.1 h -0.7 l -0.5,-0.2 -0.4,-0.3 -0.2,-0.5 -0.1,-0.3 -0.1,-0.6" style="color:#000;fill:none;stroke-width:.1"/><path id="path32" d="m 14.452122,5.30661 h -4 v -2.0602 h 4" style="fill:#ff6464;stroke-width:.1"/><path id="path34" d="m 14.452122,9.306 h -4 V 7.301 h 4" style="fill:#ff6464;stroke-width:.1"/><path style="fill:#000;fill-opacity:1;fill-rule:nonzero;stroke:none;stroke-width:.09795226;stroke-linecap:square;stroke-linejoin:round;stroke-miterlimit:4;stroke-dasharray:none;stroke-opacity:1" id="path4162" d="M 27.888464,6.2823408 A 1.3436832,1.3436832 0 0 1 26.544781,7.6260241 1.3436832,1.3436832 0 0 1 25.201097,6.2823408 1.3436832,1.3436832 0 0 1 26.544781,4.9386576 1.3436832,1.3436832 0 0 1 27.888464,6.2823408 Z"/><path id="path5008-6" d="M 17.815654,9.890594 16.604716,8.624969 16.421122,8.8320002 17.61253,10.082 Z" style="fill:#000;fill-opacity:1;fill-rule:evenodd;stroke:none;stroke-width:1px;stroke-linecap:butt;stroke-linejoin:round;stroke-opacity:1"/><path id="path5008" d="M 16.421122,9.890594 17.63206,8.624969 17.815654,8.8320003 16.624246,10.082 Z" style="fill:#000;fill-opacity:1;fill-rule:evenodd;stroke:none;stroke-width:1px;stroke-linecap:butt;stroke-linejoin:round;stroke-opacity:1"/></svg>